<?xml version="1.0" encoding="UTF-8" standalone="no"?>
<!-- Generated by IcoMoon.io -->

<svg
   xmlns:dc="http://purl.org/dc/elements/1.1/"
   xmlns:cc="http://creativecommons.org/ns#"
   xmlns:rdf="http://www.w3.org/1999/02/22-rdf-syntax-ns#"
   xmlns:svg="http://www.w3.org/2000/svg"
   xmlns="http://www.w3.org/2000/svg"
   xmlns:sodipodi="http://sodipodi.sourceforge.net/DTD/sodipodi-0.dtd"
   xmlns:inkscape="http://www.inkscape.org/namespaces/inkscape"
   version="1.1"
   width="18"
   height="18"
   viewBox="0 0 18 18"
   id="svg6"
   sodipodi:docname="clients.svg"
   inkscape:version="0.92.3 (2405546, 2018-03-11)">
  <metadata
     id="metadata12">
    <rdf:RDF>
      <cc:Work
         rdf:about="">
        <dc:format>image/svg+xml</dc:format>
        <dc:type
           rdf:resource="http://purl.org/dc/dcmitype/StillImage" />
        <dc:title></dc:title>
      </cc:Work>
    </rdf:RDF>
  </metadata>
  <defs
     id="defs10" />
  <sodipodi:namedview
     pagecolor="#ffffff"
     bordercolor="#666666"
     borderopacity="1"
     objecttolerance="10"
     gridtolerance="10"
     guidetolerance="10"
     inkscape:pageopacity="0"
     inkscape:pageshadow="2"
     inkscape:window-width="1865"
     inkscape:window-height="1030"
     id="namedview8"
     showgrid="false"
     inkscape:zoom="13.555556"
     inkscape:cx="-3.3196718"
     inkscape:cy="8.0000003"
     inkscape:window-x="55"
     inkscape:window-y="25"
     inkscape:window-maximized="1"
     inkscape:current-layer="g818" />
  <g
     id="g818"
     transform="matrix(1,0,0,1.1250703,0,-0.0011251)">
    <path
       style="fill:#435d7d;fill-opacity:1"
       id="path2"
       d="M 12,12.041 V 11.216 C 13.102,10.595 14,9.048 14,7.5 14,5.015 14,3 11,3 8,3 8,5.015 8,7.5 c 0,1.548 0.898,3.095 2,3.716 v 0.825 C 6.608,12.318 4,13.985 4,16 h 14 c 0,-2.015 -2.608,-3.682 -6,-3.959 z"
       inkscape:connector-curvature="0" />
    <path
       style="fill:#435d7d;fill-opacity:1"
       id="path4"
       d="M 5.112,12.427 C 5.976,11.862 7.051,11.433 8.234,11.171 7.999,10.893 7.785,10.583 7.601,10.249 7.126,9.386 6.875,8.436 6.875,7.501 c 0,-1.344 0,-2.614 0.478,-3.653 C 7.817,2.84 8.652,2.215 9.841,1.981 9.577,0.786 8.873,0.001 7,0.001 c -3,0 -3,2.015 -3,4.5 0,1.548 0.898,3.095 2,3.716 V 9.042 C 2.608,9.319 0,10.986 0,13.001 h 4.359 c 0.227,-0.202 0.478,-0.393 0.753,-0.573 z"
       inkscape:connector-curvature="0" />
  </g>
</svg>
