<?xml version="1.0" encoding="UTF-8" standalone="no"?>
<svg
   xmlns:dc="http://purl.org/dc/elements/1.1/"
   xmlns:cc="http://creativecommons.org/ns#"
   xmlns:rdf="http://www.w3.org/1999/02/22-rdf-syntax-ns#"
   xmlns:svg="http://www.w3.org/2000/svg"
   xmlns="http://www.w3.org/2000/svg"
   xmlns:sodipodi="http://sodipodi.sourceforge.net/DTD/sodipodi-0.dtd"
   xmlns:inkscape="http://www.inkscape.org/namespaces/inkscape"
   width="40"
   height="40"
   viewBox="0 0 40 40"
   fill="none"
   version="1.1"
   id="svg10"
   sodipodi:docname="invoices.svg"
   inkscape:version="0.92.3 (2405546, 2018-03-11)">
  <metadata
     id="metadata16">
    <rdf:RDF>
      <cc:Work
         rdf:about="">
        <dc:format>image/svg+xml</dc:format>
        <dc:type
           rdf:resource="http://purl.org/dc/dcmitype/StillImage" />
      </cc:Work>
    </rdf:RDF>
  </metadata>
  <defs
     id="defs14" />
  <sodipodi:namedview
     pagecolor="#ffffff"
     bordercolor="#666666"
     borderopacity="1"
     objecttolerance="10"
     gridtolerance="10"
     guidetolerance="10"
     inkscape:pageopacity="0"
     inkscape:pageshadow="2"
     inkscape:window-width="780"
     inkscape:window-height="480"
     id="namedview12"
     showgrid="false"
     inkscape:zoom="5.9"
     inkscape:cx="20"
     inkscape:cy="20"
     inkscape:window-x="55"
     inkscape:window-y="25"
     inkscape:window-maximized="0"
     inkscape:current-layer="svg10" />
  <path
     d="M35.8525 13.9475C34.985 12.765 33.775 11.38 32.4475 10.0525C31.12 8.725 29.735 7.515 28.5525 6.6475C26.5375 5.17 25.56 5 25 5H10.625C8.9025 5 7.5 6.4025 7.5 8.125V36.875C7.5 38.5975 8.9025 40 10.625 40H34.375C36.0975 40 37.5 38.5975 37.5 36.875V17.5C37.5 16.94 37.33 15.9625 35.8525 13.9475ZM30.6775 11.8225C31.8775 13.0225 32.8175 14.1025 33.5125 15H27.4975V8.9875C28.395 9.6825 29.4775 10.6225 30.675 11.8225H30.6775ZM35 36.875C35 37.215 34.715 37.5 34.375 37.5H10.625C10.285 37.5 10 37.215 10 36.875V8.125C10 7.7875 10.285 7.5 10.625 7.5C10.625 7.5 24.9975 7.5 25 7.5V16.25C25 16.94 25.56 17.5 26.25 17.5H35V36.875Z"
     fill="#435D7D"
     id="path2"
     style="fill:#ffffff" />
  <path
     d="M23.5525 1.6475C21.5375 0.17 20.56 0 20 0H5.625C3.9025 0 2.5 1.4025 2.5 3.125V31.875C2.5 33.385 3.575 34.6475 5 34.9375V3.125C5 2.7875 5.2875 2.5 5.625 2.5H24.6425C24.265 2.19 23.9 1.905 23.55 1.6475H23.5525Z"
     fill="#435D7D"
     id="path4"
     style="fill:#ffffff" />
  <path
     d="M22.5 20C18.358 20 15 23.358 15 27.5C15 31.642 18.358 35 22.5 35C26.642 35 30 31.642 30 27.5C30 23.358 26.642 20 22.5 20ZM22.5 33.5C19.186 33.5 16.5 30.814 16.5 27.5C16.5 24.186 19.186 21.5 22.5 21.5C25.814 21.5 28.5 24.186 28.5 27.5C28.5 30.814 25.814 33.5 22.5 33.5Z"
     fill="#435D7D"
     id="path6"
     style="fill:#ffffff" />
  <path
     d="M25.482 29.068C25.243 28.929 24.937 29.01 24.798 29.249C24.528 29.712 24.031 30 23.5 30H21.5C20.848 30 20.292 29.582 20.086 29H22.5C22.776 29 23 28.776 23 28.5C23 28.224 22.776 28 22.5 28H20V27H22.5C22.776 27 23 26.776 23 26.5C23 26.224 22.776 26 22.5 26H20.086C20.292 25.418 20.848 25 21.5 25H23.5C24.031 25 24.528 25.288 24.798 25.751C24.937 25.99 25.243 26.071 25.482 25.932C25.721 25.793 25.802 25.487 25.663 25.248C25.215 24.478 24.386 23.999 23.501 23.999H21.501C20.294 23.999 19.284 24.859 19.051 25.999H18.501C18.225 25.999 18.001 26.223 18.001 26.499C18.001 26.775 18.225 26.999 18.501 26.999H19.001V27.999H18.501C18.225 27.999 18.001 28.223 18.001 28.499C18.001 28.775 18.225 28.999 18.501 28.999H19.051C19.283 30.139 20.293 30.999 21.501 30.999H23.501C24.387 30.999 25.215 30.521 25.663 29.75C25.802 29.511 25.721 29.205 25.482 29.066V29.068Z"
     fill="#435D7D"
     id="path8"
     style="fill:#ffffff" />
</svg>
